<svg xmlns="http://www.w3.org/2000/svg" width="512" height="512" viewBox="0 0 512 512">
  <g id="Group_10" data-name="Group 10" transform="translate(-157 -28)">
    <rect id="Rectangle_9" data-name="Rectangle 9" width="512" height="512" transform="translate(157 28)" fill="none"/>
    <g id="Group_9" data-name="Group 9" transform="translate(-856 -431)">
      <path id="Path_26" data-name="Path 26" d="M2818.941,813.461c-68.472-33.625-107.086,61.418-106.586,73.5,15.142-21.127,10.594-21.459,36.965-43.9,44.59-31.89,28.368,12.856,18.773,38.343-15.828,49.367-94.6,89.465-94.6,89.465s70.668-5.66,94.6-66.656S2790.289,820.944,2818.941,813.461Z" transform="translate(-1220.875 -335.999) rotate(5)" fill="#3c3c3c"/>
      <path id="Path_27" data-name="Path 27" d="M2525.738,981.879c6.44-34.891,22.045-53.067,59.918-74.193,90.975-44.951,58.744,51.851,44.4,69.857,7.156.742,54.6-37.538,14.29-121.89C2630.324,894.043,2514.2,866.672,2525.738,981.879Z" transform="matrix(0.985, 0.174, -0.174, 0.985, -1091.614, -552.072)" fill="#3c3c3c"/>
      <path id="Path_28" data-name="Path 28" d="M2199.465,811.492c-2.754,15.52-23.27,143.719,131.691,158.254-140.555-56.707-110.1-128.818-99.17-128.352,28.742,5.074,54.369,27.809,69.15,43.352C2269.336,815.477,2250.879,839.246,2199.465,811.492Z" transform="matrix(0.999, 0.035, -0.035, 0.999, -1085.949, -179.925)" fill="#3c3c3c"/>
      <path id="Path_29" data-name="Path 29" d="M2291.321,949.324c-74.862-84.828,46.121-132,46.121-132s42.766,17.014,75.923,59.933C2286.4,789.3,2261.917,915.964,2291.321,949.324Z" transform="translate(-1178.429 227.119) rotate(-8)" fill="#3c3c3c"/>
      <path id="Path_30" data-name="Path 30" d="M2404.849,839.982c11.844-59.175,52.318-44.191,80.328-93.732,20.082,20.446,79.323,111.9-6.911,174.547,3.966-14,75.654-104.6,0-127.747C2434.068,784.076,2422.906,822.25,2404.849,839.982Z" transform="matrix(1, 0.017, -0.017, 1, -1086.045, -172.162)" fill="#3c3c3c"/>
      <path id="Path_31" data-name="Path 31" d="M2497.586,748.95c15.928-18.759,32.624-29.384,90.031-15.345-41.941,1.728-31.924,67.114-69.989,116.071C2528.161,810.115,2573.76,738.41,2497.586,748.95Z" transform="translate(-1111.159 -41.6) rotate(-2)" fill="#3c3c3c"/>
      <path id="Path_32" data-name="Path 32" d="M2450.58,778.259c-7.281-8.3,8.133-57.153,20.552-65.131,9.091,19.721,7.9,21.726,29.125,33.218C2458.059,743.428,2454.571,772.269,2450.58,778.259Z" transform="matrix(0.998, -0.07, 0.07, 0.998, -1156.72, 39.088)" fill="#3c3c3c"/>
      <path id="Path_33" data-name="Path 33" d="M2373.693,802.495c-1.823-31.232,46.539-56.164,53.638-72.469,9.815,10.323,17.977,37.076,16.841,48.5C2415.034,738.719,2389.016,774.646,2373.693,802.495Z" transform="matrix(0.999, -0.052, 0.052, 0.999, -1157.031, 3.823)" fill="#3c3c3c"/>
      <path id="Path_34" data-name="Path 34" d="M2222.766,739.961c39.112,43.935,9.833,74.794,29.445,124.732-12.643-102.839,23.286-70.263,46.177-59.1C2281.24,782.956,2244.747,749.708,2222.766,739.961Z" transform="translate(-1289.727 252.195) rotate(-9)" fill="#3c3c3c"/>
      <path id="Path_35" data-name="Path 35" d="M2287.471,858.073c-33.969-61.74,12.207-122.368,45.539-151.37-9.444,21.14-17.4,30.64,1.421,57.436C2313.325,744.436,2275.37,788.594,2287.471,858.073Z" transform="matrix(0.799, -0.602, 0.602, 0.799, -1181.118, 1419.672)" fill="#3c3c3c"/>
      <path id="Path_36" data-name="Path 36" d="M2337.294,777.948c1.88-22.359,17.407-62.371,39.42-73.229,3.71,22.8,49.219,55.952,49.566,100.616C2382.032,727.556,2369.659,708.6,2337.294,777.948Z" transform="matrix(0.951, -0.309, 0.309, 0.951, -1310.168, 662.677)" fill="#3c3c3c"/>
      <path id="Path_37" data-name="Path 37" d="M2299.988,848.273c-8.7-42.954,20.93-70.9,46.963-94.086-2.76,26.334,30.263,32.667,27.934,64.358C2362.557,773.712,2307.362,771.3,2299.988,848.273Z" transform="translate(-1254.773 1046.703) rotate(-27)" fill="#3c3c3c"/>
      <path id="Path_38" data-name="Path 38" d="M2403.274,748.9c5.31-26.263,20.328-39.355,36.763-60.09,4.7,22.792,32.76,36.052,50.971,64.688C2440.495,716.607,2430.12,710.855,2403.274,748.9Z" transform="matrix(0.999, -0.052, 0.052, 0.999, -1243.44, -4.82)" fill="#3c3c3c"/>
      <path id="Path_39" data-name="Path 39" d="M2432.25,817.662c14.609-2.792,38.227,11.843,38.227,14.007s-44.178-11.052-73.667,4.979C2407.036,824.516,2417.641,820.454,2432.25,817.662Z" transform="matrix(0.999, 0.052, -0.052, 0.999, -1124.868, -252.608)" fill="#3c3c3c"/>
      <ellipse id="Ellipse_7" data-name="Ellipse 7" cx="46.5" cy="5.5" rx="46.5" ry="5.5" transform="matrix(1, -0.017, 0.017, 1, 1224.542, 859.758)" fill="#3c3c3c"/>
    </g>
  </g>
</svg>
